#N canvas 828 158 336 477 10;
#X obj 160 388 *~;
#X obj 184 360 line~;
#X msg 183 303 0.1 100;
#X msg 203 329 0 100;
#X text 255 299 on;
#X text 252 328 off;
#X obj 87 318 osc~ 1000;
#X obj 87 263 *~;
#X obj 106 214 osc~ 100;
#X msg 165 262 0.5 100;
#X obj 136 439 dac~;
#X obj 21 178 + 440;
#X obj 26 10 dumpOSC 7770;
#X obj 31 51 OSCroute /sonicgesture;
#X obj 245 106 t;
#X obj 35 100 unpack f f f f;
#X obj 173 136 print;
#X obj 27 273 print 1;
#X obj 105 154 * 20;
#X obj 21 146 * 100;
#X connect 0 0 10 1;
#X connect 0 0 10 0;
#X connect 1 0 0 1;
#X connect 2 0 1 0;
#X connect 3 0 1 0;
#X connect 6 0 0 0;
#X connect 7 0 6 0;
#X connect 8 0 7 1;
#X connect 9 0 1 0;
#X connect 11 0 7 0;
#X connect 12 0 13 0;
#X connect 13 0 15 0;
#X connect 15 0 17 0;
#X connect 15 0 19 0;
#X connect 15 3 16 0;
#X connect 15 3 18 0;
#X connect 18 0 8 0;
#X connect 19 0 11 0;
